<mxfile host="app.diagrams.net" modified="2024-06-06T01:38:43.824Z" agent="Mozilla/5.0 (Windows NT 10.0; Win64; x64) AppleWebKit/537.36 (KHTML, like Gecko) Chrome/125.0.0.0 Safari/537.36" etag="YVYRYeiKrIzj414jEcQr" version="24.4.14" type="github">
  <diagram name="第 1 页" id="J0EsarE4Onqa_ZG5Tu-q">
    <mxGraphModel dx="838" dy="540" grid="1" gridSize="10" guides="1" tooltips="1" connect="1" arrows="1" fold="1" page="1" pageScale="1" pageWidth="827" pageHeight="1169" math="0" shadow="0">
      <root>
        <mxCell id="0" />
        <mxCell id="1" parent="0" />
        <mxCell id="EIHMiiQ0xbYd-bG4uxIF-5" style="edgeStyle=orthogonalEdgeStyle;rounded=0;orthogonalLoop=1;jettySize=auto;html=1;exitX=1;exitY=0.5;exitDx=0;exitDy=0;exitPerimeter=0;entryX=0;entryY=0.5;entryDx=0;entryDy=0;" edge="1" parent="1" source="EIHMiiQ0xbYd-bG4uxIF-2" target="EIHMiiQ0xbYd-bG4uxIF-3">
          <mxGeometry relative="1" as="geometry" />
        </mxCell>
        <mxCell id="EIHMiiQ0xbYd-bG4uxIF-2" value="开始" style="strokeWidth=2;html=1;shape=mxgraph.flowchart.terminator;whiteSpace=wrap;" vertex="1" parent="1">
          <mxGeometry x="40" y="260" width="90" height="40" as="geometry" />
        </mxCell>
        <mxCell id="EIHMiiQ0xbYd-bG4uxIF-19" style="edgeStyle=orthogonalEdgeStyle;rounded=0;orthogonalLoop=1;jettySize=auto;html=1;exitX=0.5;exitY=1;exitDx=0;exitDy=0;entryX=0;entryY=0.5;entryDx=0;entryDy=0;" edge="1" parent="1" source="EIHMiiQ0xbYd-bG4uxIF-3" target="EIHMiiQ0xbYd-bG4uxIF-10">
          <mxGeometry relative="1" as="geometry" />
        </mxCell>
        <mxCell id="EIHMiiQ0xbYd-bG4uxIF-21" style="edgeStyle=orthogonalEdgeStyle;rounded=0;orthogonalLoop=1;jettySize=auto;html=1;exitX=0.5;exitY=0;exitDx=0;exitDy=0;entryX=0;entryY=0.5;entryDx=0;entryDy=0;" edge="1" parent="1" source="EIHMiiQ0xbYd-bG4uxIF-3" target="EIHMiiQ0xbYd-bG4uxIF-9">
          <mxGeometry relative="1" as="geometry" />
        </mxCell>
        <mxCell id="EIHMiiQ0xbYd-bG4uxIF-78" style="edgeStyle=orthogonalEdgeStyle;rounded=0;orthogonalLoop=1;jettySize=auto;html=1;exitX=0.25;exitY=1;exitDx=0;exitDy=0;entryX=0;entryY=0.5;entryDx=0;entryDy=0;" edge="1" parent="1" source="EIHMiiQ0xbYd-bG4uxIF-3" target="EIHMiiQ0xbYd-bG4uxIF-77">
          <mxGeometry relative="1" as="geometry" />
        </mxCell>
        <mxCell id="EIHMiiQ0xbYd-bG4uxIF-3" value="选择浏览模块" style="rounded=0;whiteSpace=wrap;html=1;" vertex="1" parent="1">
          <mxGeometry x="180" y="260" width="110" height="40" as="geometry" />
        </mxCell>
        <mxCell id="EIHMiiQ0xbYd-bG4uxIF-9" value="个性化模式" style="rounded=0;whiteSpace=wrap;html=1;" vertex="1" parent="1">
          <mxGeometry x="280" y="90" width="110" height="40" as="geometry" />
        </mxCell>
        <mxCell id="EIHMiiQ0xbYd-bG4uxIF-35" style="edgeStyle=orthogonalEdgeStyle;rounded=0;orthogonalLoop=1;jettySize=auto;html=1;exitX=0.75;exitY=0;exitDx=0;exitDy=0;entryX=0;entryY=0.5;entryDx=0;entryDy=0;" edge="1" parent="1" source="EIHMiiQ0xbYd-bG4uxIF-10" target="EIHMiiQ0xbYd-bG4uxIF-33">
          <mxGeometry relative="1" as="geometry" />
        </mxCell>
        <mxCell id="EIHMiiQ0xbYd-bG4uxIF-36" style="edgeStyle=orthogonalEdgeStyle;rounded=0;orthogonalLoop=1;jettySize=auto;html=1;exitX=0.75;exitY=1;exitDx=0;exitDy=0;entryX=0;entryY=0.5;entryDx=0;entryDy=0;" edge="1" parent="1" source="EIHMiiQ0xbYd-bG4uxIF-10" target="EIHMiiQ0xbYd-bG4uxIF-34">
          <mxGeometry relative="1" as="geometry" />
        </mxCell>
        <mxCell id="EIHMiiQ0xbYd-bG4uxIF-10" value="个人资料" style="rounded=0;whiteSpace=wrap;html=1;" vertex="1" parent="1">
          <mxGeometry x="280" y="500" width="110" height="40" as="geometry" />
        </mxCell>
        <mxCell id="EIHMiiQ0xbYd-bG4uxIF-24" value="" style="edgeStyle=orthogonalEdgeStyle;rounded=0;orthogonalLoop=1;jettySize=auto;html=1;exitX=1;exitY=0.5;exitDx=0;exitDy=0;" edge="1" parent="1" source="EIHMiiQ0xbYd-bG4uxIF-3" target="EIHMiiQ0xbYd-bG4uxIF-23">
          <mxGeometry relative="1" as="geometry">
            <mxPoint x="360" y="280.3157894736843" as="targetPoint" />
            <mxPoint x="270" y="280" as="sourcePoint" />
          </mxGeometry>
        </mxCell>
        <mxCell id="EIHMiiQ0xbYd-bG4uxIF-29" style="edgeStyle=orthogonalEdgeStyle;rounded=0;orthogonalLoop=1;jettySize=auto;html=1;exitX=0.5;exitY=0;exitDx=0;exitDy=0;entryX=0;entryY=0.5;entryDx=0;entryDy=0;" edge="1" parent="1" source="EIHMiiQ0xbYd-bG4uxIF-23" target="EIHMiiQ0xbYd-bG4uxIF-27">
          <mxGeometry relative="1" as="geometry" />
        </mxCell>
        <mxCell id="EIHMiiQ0xbYd-bG4uxIF-31" style="edgeStyle=orthogonalEdgeStyle;rounded=0;orthogonalLoop=1;jettySize=auto;html=1;exitX=0.5;exitY=1;exitDx=0;exitDy=0;entryX=0;entryY=0.5;entryDx=0;entryDy=0;" edge="1" parent="1" source="EIHMiiQ0xbYd-bG4uxIF-23" target="EIHMiiQ0xbYd-bG4uxIF-28">
          <mxGeometry relative="1" as="geometry" />
        </mxCell>
        <mxCell id="EIHMiiQ0xbYd-bG4uxIF-23" value="开始游戏" style="rounded=0;whiteSpace=wrap;html=1;" vertex="1" parent="1">
          <mxGeometry x="350" y="260" width="110" height="40" as="geometry" />
        </mxCell>
        <mxCell id="EIHMiiQ0xbYd-bG4uxIF-74" style="edgeStyle=orthogonalEdgeStyle;rounded=0;orthogonalLoop=1;jettySize=auto;html=1;exitX=1;exitY=0.5;exitDx=0;exitDy=0;entryX=0.5;entryY=0;entryDx=0;entryDy=0;" edge="1" parent="1" source="EIHMiiQ0xbYd-bG4uxIF-27" target="EIHMiiQ0xbYd-bG4uxIF-73">
          <mxGeometry relative="1" as="geometry" />
        </mxCell>
        <mxCell id="EIHMiiQ0xbYd-bG4uxIF-27" value="单人模式" style="rounded=0;whiteSpace=wrap;html=1;" vertex="1" parent="1">
          <mxGeometry x="550" y="180" width="110" height="40" as="geometry" />
        </mxCell>
        <mxCell id="EIHMiiQ0xbYd-bG4uxIF-71" style="edgeStyle=orthogonalEdgeStyle;rounded=0;orthogonalLoop=1;jettySize=auto;html=1;exitX=1;exitY=0.5;exitDx=0;exitDy=0;entryX=0;entryY=0.5;entryDx=0;entryDy=0;" edge="1" parent="1" source="EIHMiiQ0xbYd-bG4uxIF-28" target="EIHMiiQ0xbYd-bG4uxIF-70">
          <mxGeometry relative="1" as="geometry" />
        </mxCell>
        <mxCell id="EIHMiiQ0xbYd-bG4uxIF-28" value="多人模式" style="rounded=0;whiteSpace=wrap;html=1;" vertex="1" parent="1">
          <mxGeometry x="480" y="340" width="110" height="40" as="geometry" />
        </mxCell>
        <mxCell id="EIHMiiQ0xbYd-bG4uxIF-38" style="edgeStyle=orthogonalEdgeStyle;rounded=0;orthogonalLoop=1;jettySize=auto;html=1;exitX=1;exitY=0.5;exitDx=0;exitDy=0;entryX=0;entryY=0.5;entryDx=0;entryDy=0;" edge="1" parent="1" source="EIHMiiQ0xbYd-bG4uxIF-33" target="EIHMiiQ0xbYd-bG4uxIF-37">
          <mxGeometry relative="1" as="geometry" />
        </mxCell>
        <mxCell id="EIHMiiQ0xbYd-bG4uxIF-33" value="修改个人资料" style="rounded=0;whiteSpace=wrap;html=1;" vertex="1" parent="1">
          <mxGeometry x="430" y="440" width="110" height="40" as="geometry" />
        </mxCell>
        <mxCell id="EIHMiiQ0xbYd-bG4uxIF-48" style="edgeStyle=orthogonalEdgeStyle;rounded=0;orthogonalLoop=1;jettySize=auto;html=1;exitX=1;exitY=0.5;exitDx=0;exitDy=0;" edge="1" parent="1" source="EIHMiiQ0xbYd-bG4uxIF-34">
          <mxGeometry relative="1" as="geometry">
            <mxPoint x="600" y="584.5263157894738" as="targetPoint" />
          </mxGeometry>
        </mxCell>
        <mxCell id="EIHMiiQ0xbYd-bG4uxIF-34" value="购买高级会员" style="rounded=0;whiteSpace=wrap;html=1;" vertex="1" parent="1">
          <mxGeometry x="430" y="565" width="110" height="40" as="geometry" />
        </mxCell>
        <mxCell id="EIHMiiQ0xbYd-bG4uxIF-41" style="edgeStyle=orthogonalEdgeStyle;rounded=0;orthogonalLoop=1;jettySize=auto;html=1;exitX=1;exitY=0.5;exitDx=0;exitDy=0;" edge="1" parent="1" source="EIHMiiQ0xbYd-bG4uxIF-37">
          <mxGeometry relative="1" as="geometry">
            <mxPoint x="730" y="460.31578947368416" as="targetPoint" />
          </mxGeometry>
        </mxCell>
        <mxCell id="EIHMiiQ0xbYd-bG4uxIF-37" value="是否保存" style="rhombus;whiteSpace=wrap;html=1;" vertex="1" parent="1">
          <mxGeometry x="610" y="437.5" width="60" height="45" as="geometry" />
        </mxCell>
        <mxCell id="EIHMiiQ0xbYd-bG4uxIF-42" value="是" style="text;html=1;align=center;verticalAlign=middle;resizable=0;points=[];autosize=1;strokeColor=none;fillColor=none;" vertex="1" parent="1">
          <mxGeometry x="670" y="430" width="40" height="30" as="geometry" />
        </mxCell>
        <mxCell id="EIHMiiQ0xbYd-bG4uxIF-44" value="保存修改信息" style="rounded=0;whiteSpace=wrap;html=1;" vertex="1" parent="1">
          <mxGeometry x="730" y="442.5" width="110" height="40" as="geometry" />
        </mxCell>
        <mxCell id="EIHMiiQ0xbYd-bG4uxIF-55" style="edgeStyle=orthogonalEdgeStyle;rounded=0;orthogonalLoop=1;jettySize=auto;html=1;exitX=1;exitY=0.5;exitDx=0;exitDy=0;entryX=0;entryY=0.5;entryDx=0;entryDy=0;" edge="1" parent="1" source="EIHMiiQ0xbYd-bG4uxIF-49" target="EIHMiiQ0xbYd-bG4uxIF-52">
          <mxGeometry relative="1" as="geometry" />
        </mxCell>
        <mxCell id="EIHMiiQ0xbYd-bG4uxIF-49" value="提交订单" style="rounded=0;whiteSpace=wrap;html=1;" vertex="1" parent="1">
          <mxGeometry x="600" y="565" width="110" height="40" as="geometry" />
        </mxCell>
        <mxCell id="EIHMiiQ0xbYd-bG4uxIF-60" style="edgeStyle=orthogonalEdgeStyle;rounded=0;orthogonalLoop=1;jettySize=auto;html=1;exitX=1;exitY=0.5;exitDx=0;exitDy=0;entryX=0;entryY=0.5;entryDx=0;entryDy=0;" edge="1" parent="1" source="EIHMiiQ0xbYd-bG4uxIF-52" target="EIHMiiQ0xbYd-bG4uxIF-58">
          <mxGeometry relative="1" as="geometry" />
        </mxCell>
        <mxCell id="EIHMiiQ0xbYd-bG4uxIF-52" value="是否支付" style="rhombus;whiteSpace=wrap;html=1;" vertex="1" parent="1">
          <mxGeometry x="770" y="562.5" width="60" height="45" as="geometry" />
        </mxCell>
        <mxCell id="EIHMiiQ0xbYd-bG4uxIF-58" value="升级为高级用户" style="rounded=0;whiteSpace=wrap;html=1;" vertex="1" parent="1">
          <mxGeometry x="900" y="565" width="110" height="40" as="geometry" />
        </mxCell>
        <mxCell id="EIHMiiQ0xbYd-bG4uxIF-62" value="是" style="text;html=1;align=center;verticalAlign=middle;resizable=0;points=[];autosize=1;strokeColor=none;fillColor=none;" vertex="1" parent="1">
          <mxGeometry x="840" y="558" width="40" height="30" as="geometry" />
        </mxCell>
        <mxCell id="EIHMiiQ0xbYd-bG4uxIF-75" style="edgeStyle=orthogonalEdgeStyle;rounded=0;orthogonalLoop=1;jettySize=auto;html=1;exitX=1;exitY=0.5;exitDx=0;exitDy=0;entryX=0.5;entryY=1;entryDx=0;entryDy=0;" edge="1" parent="1" source="EIHMiiQ0xbYd-bG4uxIF-70" target="EIHMiiQ0xbYd-bG4uxIF-73">
          <mxGeometry relative="1" as="geometry" />
        </mxCell>
        <mxCell id="EIHMiiQ0xbYd-bG4uxIF-70" value="创建/选择房间" style="rounded=0;whiteSpace=wrap;html=1;" vertex="1" parent="1">
          <mxGeometry x="640" y="340" width="110" height="40" as="geometry" />
        </mxCell>
        <mxCell id="EIHMiiQ0xbYd-bG4uxIF-73" value="选择拼图" style="rounded=0;whiteSpace=wrap;html=1;" vertex="1" parent="1">
          <mxGeometry x="770" y="250" width="110" height="40" as="geometry" />
        </mxCell>
        <mxCell id="EIHMiiQ0xbYd-bG4uxIF-77" value="注册/登录" style="rounded=0;whiteSpace=wrap;html=1;" vertex="1" parent="1">
          <mxGeometry x="280" y="680" width="110" height="40" as="geometry" />
        </mxCell>
      </root>
    </mxGraphModel>
  </diagram>
</mxfile>
